<svg width="34" height="34" viewBox="0 0 34 34" fill="none" xmlns="http://www.w3.org/2000/svg">
<path fill-rule="evenodd" clip-rule="evenodd" d="M9.95359 3.10186C8.93947 2.29858 7.45183 2.37973 6.53418 3.32919C5.55605 4.34128 5.58195 5.9711 6.59152 6.95177L6.98587 7.33477L8.49402 8.79955L8.49416 8.79969L11.5057 11.7245C11.568 11.7851 11.6329 11.8418 11.6997 11.8949C12.7138 12.6981 14.2014 12.6171 15.119 11.6676C16.0972 10.6555 16.0713 9.02569 15.0617 8.04502L14.6674 7.66196L13.1593 6.19717L13.1591 6.19703L10.1475 3.27227C10.0852 3.21165 10.0204 3.15494 9.95359 3.10186Z" fill="url(#paint0_linear_25_26)"/>
<path fill-rule="evenodd" clip-rule="evenodd" d="M26.9729 4.5679C28.0838 3.70323 28.2836 2.08941 27.4169 0.980932C26.5503 -0.127402 24.9325 -0.326791 23.8214 0.537878L14.6757 7.65538C14.6731 7.65783 14.6705 7.65999 14.6678 7.66237C14.4739 7.83361 14.2715 7.9904 14.0621 8.13294C12.6001 9.12743 10.7946 9.41936 9.12947 8.99795C8.91483 8.94362 8.70271 8.87748 8.49402 8.79954L9.50169 9.7784L11.6532 11.8681C13.1026 13.2758 15.4439 13.5402 17.0569 12.2849C20.3624 9.71268 23.6675 7.14025 26.973 4.5679H26.9729Z" fill="url(#paint1_linear_25_26)"/>
<path fill-rule="evenodd" clip-rule="evenodd" d="M3.10947 24.3118C2.30426 25.3235 2.3856 26.8075 3.33734 27.7229C4.35188 28.6987 5.98562 28.6729 6.96866 27.6657L7.35257 27.2724L8.82089 25.7679L8.82103 25.7677L11.7529 22.7633C11.8137 22.7012 11.8705 22.6365 11.9237 22.5699C12.7289 21.5582 12.6476 20.0742 11.6959 19.1587C10.6813 18.1829 9.04757 18.2088 8.06454 19.2159L7.68055 19.6093L6.21223 21.1138L6.21209 21.114L3.28029 24.1183C3.21952 24.1804 3.16268 24.2452 3.10947 24.3118Z" fill="url(#paint2_linear_25_26)"/>
<path fill-rule="evenodd" clip-rule="evenodd" d="M4.5789 7.33322C3.71215 6.22503 2.09444 6.02564 0.983296 6.8903C-0.127709 7.75483 -0.327578 9.36873 0.539173 10.4772L7.67383 19.6009C7.67628 19.6035 7.67845 19.6061 7.68083 19.6088C7.85248 19.8022 8.00965 20.0041 8.15253 20.2129C9.14943 21.6715 9.44205 23.4726 9.01956 25.1338C8.96517 25.3479 8.89887 25.5595 8.82075 25.7677L9.80196 24.7625L11.8967 22.6161C13.3078 21.1702 13.5728 18.8345 12.3145 17.2253C9.73608 13.9278 7.15746 10.6306 4.5789 7.33315V7.33322Z" fill="url(#paint3_linear_25_26)"/>
<path fill-rule="evenodd" clip-rule="evenodd" d="M23.7481 30.8981C24.7622 31.7014 26.2499 31.6203 27.1674 30.6708C28.1456 29.6587 28.1197 28.0289 27.1101 27.0482L26.7158 26.6652L25.2077 25.2004L25.2075 25.2003L22.196 22.2755C22.1337 22.2149 22.0688 22.1581 22.002 22.1051C20.9879 21.3018 19.5002 21.3829 18.5827 22.3324C17.6045 23.3445 17.6304 24.9743 18.64 25.955L19.0343 26.338L20.5424 27.8028L20.5426 27.803L23.5541 30.7277C23.6164 30.7883 23.6813 30.8451 23.7481 30.8981Z" fill="url(#paint4_linear_25_26)"/>
<path fill-rule="evenodd" clip-rule="evenodd" d="M6.72867 29.4321C5.61774 30.2968 5.41794 31.9106 6.28469 33.0191C7.1513 34.1274 8.76901 34.3268 9.88016 33.4621L19.0259 26.3446C19.0284 26.3422 19.0311 26.34 19.0337 26.3376C19.2277 26.1664 19.43 26.0096 19.6394 25.8671C21.1014 24.8726 22.9069 24.5806 24.5721 25.002C24.7867 25.0564 24.9988 25.1225 25.2075 25.2004L24.1999 24.2216L22.0483 22.1319C20.5989 20.7242 18.2577 20.4598 16.6446 21.7151C13.3391 24.2873 10.034 26.8597 6.7286 29.4321H6.72867Z" fill="url(#paint5_linear_25_26)"/>
<path fill-rule="evenodd" clip-rule="evenodd" d="M30.5924 9.68823C31.3976 8.67655 31.3163 7.19249 30.3646 6.27712C29.35 5.30133 27.7163 5.3271 26.7332 6.33431L26.3493 6.72764L24.8809 8.23217L24.8809 8.23231L21.949 11.2366C21.8882 11.2988 21.8314 11.3635 21.7782 11.4301C20.973 12.4418 21.0543 13.9259 22.006 14.8413C23.0206 15.8171 24.6543 15.7913 25.6374 14.7841L26.0213 14.3907L27.4897 12.8862L27.4897 12.8861L30.4216 9.88175C30.4824 9.81959 30.5392 9.75486 30.5924 9.68823Z" fill="url(#paint6_linear_25_26)"/>
<path fill-rule="evenodd" clip-rule="evenodd" d="M29.1228 26.6668C29.9895 27.775 31.6073 27.9744 32.7185 27.1097C33.8295 26.2452 34.0293 24.6313 33.1625 23.5228L26.0279 14.3991C26.0255 14.3965 26.0232 14.3939 26.0209 14.3912C25.8493 14.1978 25.6921 13.9959 25.5492 13.787C24.5523 12.3285 24.2597 10.5274 24.6821 8.86616C24.7366 8.65211 24.8029 8.4405 24.8809 8.23224L23.8998 9.23749L21.8051 11.3839C20.3939 12.8298 20.129 15.1654 21.3873 16.7747C23.9657 20.0721 26.5442 23.3694 29.1228 26.6668V26.6668Z" fill="url(#paint7_linear_25_26)"/>
<defs>
<linearGradient id="paint0_linear_25_26" x1="10.1136" y1="5.55249" x2="10.8011" y2="9.18322" gradientUnits="userSpaceOnUse">
<stop stop-color="#E62129"/>
<stop offset="0.74902" stop-color="#9A0000"/>
<stop offset="1" stop-color="#9A0000"/>
</linearGradient>
<linearGradient id="paint1_linear_25_26" x1="24.8696" y1="3.12113" x2="14.0575" y2="11.4929" gradientUnits="userSpaceOnUse">
<stop stop-color="#9A0000"/>
<stop offset="1" stop-color="#E62129"/>
</linearGradient>
<linearGradient id="paint2_linear_25_26" x1="5.56607" y1="24.1522" x2="9.2042" y2="23.4599" gradientUnits="userSpaceOnUse">
<stop stop-color="#FFCC33"/>
<stop offset="0.74902" stop-color="#F7981E"/>
<stop offset="1" stop-color="#F7981E"/>
</linearGradient>
<linearGradient id="paint3_linear_25_26" x1="3.12858" y1="9.43144" x2="11.4702" y2="20.2564" gradientUnits="userSpaceOnUse">
<stop stop-color="#F7981E"/>
<stop offset="1" stop-color="#FFCC33"/>
</linearGradient>
<linearGradient id="paint4_linear_25_26" x1="23.5881" y1="28.4473" x2="22.9005" y2="24.8168" gradientUnits="userSpaceOnUse">
<stop stop-color="#29A6FF"/>
<stop offset="0.74902" stop-color="#0C3569"/>
<stop offset="1" stop-color="#0C3569"/>
</linearGradient>
<linearGradient id="paint5_linear_25_26" x1="8.83174" y1="30.8789" x2="19.6439" y2="22.507" gradientUnits="userSpaceOnUse">
<stop stop-color="#0C3569"/>
<stop offset="1" stop-color="#29A6FF"/>
</linearGradient>
<linearGradient id="paint6_linear_25_26" x1="28.1358" y1="9.84788" x2="24.4977" y2="10.5402" gradientUnits="userSpaceOnUse">
<stop stop-color="#C32BDE"/>
<stop offset="0.74902" stop-color="#800B8D"/>
<stop offset="1" stop-color="#480A6E"/>
</linearGradient>
<linearGradient id="paint7_linear_25_26" x1="30.5731" y1="24.5686" x2="22.2315" y2="13.7435" gradientUnits="userSpaceOnUse">
<stop stop-color="#800B8D"/>
<stop offset="1" stop-color="#C32BDE"/>
</linearGradient>
</defs>
</svg>
