<svg width="100" height="100" viewBox="0 0 100 100" fill="none" xmlns="http://www.w3.org/2000/svg">
<path fill-rule="evenodd" clip-rule="evenodd" d="M29.2752 9.12322C26.2924 6.76063 21.917 6.99931 19.2181 9.79182C16.3412 12.7686 16.4174 17.5622 19.3867 20.4465L24.9823 25.8811L33.8402 34.484C34.0235 34.6623 34.2143 34.8289 34.4108 34.9852C37.3935 37.3476 41.7687 37.1091 44.4677 34.3166C47.3445 31.3398 47.2685 26.5462 44.299 23.6619L29.8455 9.62441C29.6622 9.44612 29.4716 9.27933 29.2752 9.12322Z" fill="url(#paint0_linear_34_24)"/>
<path fill-rule="evenodd" clip-rule="evenodd" d="M79.3322 13.435C82.5995 10.8919 83.1873 6.14531 80.6381 2.88509C78.0892 -0.374713 73.3312 -0.96115 70.0631 1.58199L43.1638 22.5158C43.1562 22.523 43.1486 22.5294 43.1406 22.5364C42.5704 23.04 41.9752 23.5012 41.3593 23.9204C37.0593 26.8454 31.749 27.704 26.8514 26.4646C26.2201 26.3048 25.5961 26.1104 24.9823 25.8811L34.2742 34.9062C38.537 39.0466 45.4232 39.824 50.1676 36.1321C59.8897 28.5667 69.6103 21.0008 79.3322 13.435Z" fill="url(#paint1_linear_34_24)"/>
<path fill-rule="evenodd" clip-rule="evenodd" d="M9.14553 71.5053C6.77724 74.4808 7.0165 78.8457 9.81574 81.538C12.7997 84.408 17.6048 84.3322 20.4961 81.3698L25.9439 75.7878L34.5675 66.951C34.7462 66.7682 34.9132 66.578 35.0699 66.3821C37.4379 63.4065 37.1989 59.0416 34.3997 56.3492C31.4157 53.4792 26.6106 53.5552 23.7193 56.5174L9.64793 70.9361C9.4692 71.1189 9.30201 71.3094 9.14553 71.5053Z" fill="url(#paint2_linear_34_24)"/>
<path fill-rule="evenodd" clip-rule="evenodd" d="M13.4674 21.5683C10.9181 18.3089 6.16014 17.7225 2.89205 20.2656C-0.375616 22.8083 -0.963468 27.5551 1.58581 30.8153L22.5701 57.6497C22.5773 57.6573 22.5837 57.6649 22.5907 57.6729C23.0956 58.2417 23.5578 58.8355 23.9781 59.4499C26.9101 63.7398 27.7708 69.037 26.5282 73.923C26.3682 74.5526 26.1737 75.1753 25.9439 75.7878L34.9904 66.5179C39.1407 62.2654 39.9201 55.3957 36.2192 50.6628C28.6356 40.9643 21.0514 31.2668 13.4674 21.5683Z" fill="url(#paint3_linear_34_24)"/>
<path fill-rule="evenodd" clip-rule="evenodd" d="M69.8476 90.8769C72.8303 93.2395 77.2057 93.0008 79.9044 90.2083C82.7813 87.2315 82.7053 82.4379 79.7358 79.5536L74.1404 74.119L65.2825 65.5161C65.0992 65.3378 64.9084 65.171 64.7119 65.0149C61.7292 62.6523 57.3538 62.891 54.6551 65.6835C51.7782 68.6603 51.8542 73.4539 54.8237 76.3382L69.277 90.3757C69.4603 90.554 69.6511 90.7208 69.8476 90.8769Z" fill="url(#paint4_linear_34_24)"/>
<path fill-rule="evenodd" clip-rule="evenodd" d="M19.7904 86.565C16.523 89.1081 15.9353 93.8547 18.4846 97.1149C21.0335 100.375 25.7915 100.961 29.0595 98.418L55.9588 77.4842C55.9662 77.477 55.9741 77.4706 55.9819 77.4636C56.5522 76.96 57.1473 76.4988 57.7631 76.0796C62.0634 73.1546 67.3736 72.296 72.2712 73.5354C72.9023 73.6952 73.5264 73.8897 74.1404 74.119L64.8482 65.0938C60.5854 60.9534 53.6995 60.176 48.9551 63.8679C39.233 71.4333 29.5123 78.9992 19.7904 86.565Z" fill="url(#paint5_linear_34_24)"/>
<path fill-rule="evenodd" clip-rule="evenodd" d="M89.978 28.4948C92.3462 25.5193 92.107 21.1544 89.3077 18.4621C86.3238 15.5922 81.5187 15.668 78.6274 18.6303L73.1794 24.2123L64.556 33.0489C64.3773 33.2317 64.2101 33.4221 64.0536 33.6181C61.6853 36.5936 61.9246 40.9585 64.7238 43.651C67.7078 46.5209 72.5129 46.4449 75.4042 43.4827L89.4755 29.064C89.6543 28.8812 89.8215 28.6908 89.978 28.4948Z" fill="url(#paint6_linear_34_24)"/>
<path fill-rule="evenodd" clip-rule="evenodd" d="M85.6556 78.4316C88.2049 81.691 92.9631 82.2774 96.2312 79.7343C99.4989 77.1916 100.087 72.4448 97.5372 69.1846L76.5531 42.3502C76.5459 42.3426 76.5393 42.335 76.5325 42.327C76.0277 41.7582 75.5654 41.1644 75.1452 40.55C72.2129 36.2601 71.3524 30.9629 72.5948 26.0769C72.755 25.4473 72.9498 24.8248 73.1794 24.2123L64.1329 33.482C59.9825 37.7345 59.2032 44.604 62.9041 49.3371C70.4877 59.0356 78.0716 68.7331 85.6556 78.4316Z" fill="url(#paint7_linear_34_24)"/>
<defs>
<linearGradient id="paint0_linear_34_24" x1="42.5068" y1="30.3255" x2="49.6002" y2="66.9787" gradientUnits="userSpaceOnUse">
<stop stop-color="#E62129"/>
<stop offset="0.74902" stop-color="#9A0000"/>
<stop offset="1" stop-color="#9A0000"/>
</linearGradient>
<linearGradient id="paint1_linear_34_24" x1="83.4034" y1="23.8411" x2="13.8575" y2="59.7458" gradientUnits="userSpaceOnUse">
<stop stop-color="#9A0000"/>
<stop offset="1" stop-color="#E62129"/>
</linearGradient>
<linearGradient id="paint2_linear_34_24" x1="30.0603" y1="57.1176" x2="66.4362" y2="50.1998" gradientUnits="userSpaceOnUse">
<stop stop-color="#FFCC33"/>
<stop offset="0.74902" stop-color="#F7981E"/>
<stop offset="1" stop-color="#F7981E"/>
</linearGradient>
<linearGradient id="paint3_linear_34_24" x1="23.6315" y1="15.8587" x2="60.2221" y2="85.4946" gradientUnits="userSpaceOnUse">
<stop stop-color="#F7981E"/>
<stop offset="1" stop-color="#FFCC33"/>
</linearGradient>
<linearGradient id="paint4_linear_34_24" x1="56.6159" y1="69.6724" x2="49.5225" y2="33.0222" gradientUnits="userSpaceOnUse">
<stop stop-color="#29A6FF"/>
<stop offset="0.74902" stop-color="#0C3569"/>
<stop offset="1" stop-color="#0C3569"/>
</linearGradient>
<linearGradient id="paint5_linear_34_24" x1="15.7188" y1="76.1589" x2="85.2651" y2="40.2539" gradientUnits="userSpaceOnUse">
<stop stop-color="#0C3569"/>
<stop offset="1" stop-color="#29A6FF"/>
</linearGradient>
<linearGradient id="paint6_linear_34_24" x1="69.0622" y1="42.8831" x2="32.6871" y2="49.8002" gradientUnits="userSpaceOnUse">
<stop stop-color="#C32BDE"/>
<stop offset="0.74902" stop-color="#800B8D"/>
<stop offset="1" stop-color="#480A6E"/>
</linearGradient>
<linearGradient id="paint7_linear_34_24" x1="89.9213" y1="72.2605" x2="65.3873" y2="40.422" gradientUnits="userSpaceOnUse">
<stop stop-color="#800B8D"/>
<stop offset="1" stop-color="#C32BDE"/>
</linearGradient>
</defs>
</svg>
