<svg width="171" height="36" viewBox="0 0 171 36" fill="none" xmlns="http://www.w3.org/2000/svg">
<path fill-rule="evenodd" clip-rule="evenodd" d="M10.5391 3.28436C9.46531 2.43383 7.89016 2.51976 6.91853 3.52506C5.88286 4.59669 5.91028 6.32238 6.97924 7.36074L7.39678 7.76626L8.99365 9.31722L8.9938 9.31736L12.1825 12.4142C12.2485 12.4784 12.3172 12.5384 12.3879 12.5947C13.4617 13.4451 15.0367 13.3593 16.0084 12.354C17.044 11.2823 17.0167 9.55665 15.9477 8.5183L15.5302 8.1127L13.9333 6.56175L13.9332 6.5616L10.7444 3.46479C10.6784 3.40061 10.6098 3.34056 10.5391 3.28436Z" fill="url(#paint0_linear_36_5)"/>
<path fill-rule="evenodd" clip-rule="evenodd" d="M28.5596 4.8366C29.7358 3.92107 29.9474 2.21231 29.0297 1.03863C28.1121 -0.134897 26.3992 -0.346014 25.2227 0.569518L15.5389 8.1057C15.5362 8.10829 15.5335 8.11058 15.5306 8.1131C15.3253 8.29441 15.111 8.46042 14.8893 8.61135C13.3413 9.66435 11.4296 9.97344 9.66648 9.52725C9.43922 9.46972 9.21462 9.39969 8.99365 9.31717L10.0606 10.3536L12.3387 12.5662C13.8733 14.0568 16.3523 14.3367 18.0603 13.0075C21.5602 10.284 25.0598 7.56027 28.5596 4.8366H28.5596Z" fill="url(#paint1_linear_36_5)"/>
<path fill-rule="evenodd" clip-rule="evenodd" d="M3.29234 25.7419C2.43976 26.8131 2.52589 28.3845 3.53362 29.3537C4.60783 30.3869 6.33768 30.3596 7.37854 29.2931L7.78504 28.8767L9.33974 27.2836L9.33988 27.2835L12.4442 24.1024C12.5086 24.0366 12.5687 23.9681 12.6251 23.8975C13.4776 22.8264 13.3915 21.255 12.3838 20.2857C11.3096 19.2525 9.57975 19.2799 8.53889 20.3463L8.13232 20.7628L6.57762 22.3558L6.57748 22.356L3.4732 25.537C3.40886 25.6028 3.34867 25.6714 3.29234 25.7419Z" fill="url(#paint2_linear_36_5)"/>
<path fill-rule="evenodd" clip-rule="evenodd" d="M4.84826 7.76459C3.93052 6.5912 2.21765 6.38009 1.04114 7.29562C-0.135222 8.211 -0.346848 9.91983 0.57089 11.0935L8.12524 20.7539C8.12784 20.7566 8.13014 20.7594 8.13266 20.7622C8.31441 20.967 8.48082 21.1808 8.63211 21.402C9.68764 22.9463 9.99749 24.8533 9.55014 26.6123C9.49255 26.8389 9.42235 27.063 9.33963 27.2835L10.3786 26.2191L12.5965 23.9465C14.0907 22.4155 14.3712 19.9425 13.0389 18.2386C10.3088 14.7471 7.5785 11.256 4.84826 7.76451V7.76459Z" fill="url(#paint3_linear_36_5)"/>
<path fill-rule="evenodd" clip-rule="evenodd" d="M25.1452 32.7157C26.2189 33.5662 27.7941 33.4803 28.7657 32.475C29.8013 31.4034 29.774 29.6777 28.7049 28.6393L28.2875 28.2338L26.6906 26.6828L26.6905 26.6827L23.5018 23.5858C23.4358 23.5216 23.3671 23.4616 23.2964 23.4054C22.2226 22.5548 20.6474 22.6408 19.6759 23.6461C18.6402 24.7177 18.6676 26.4434 19.7366 27.4818L20.1541 27.8874L21.7509 29.4383L21.7511 29.4385L24.9398 32.5353C25.0057 32.5994 25.0745 32.6595 25.1452 32.7157Z" fill="url(#paint4_linear_36_5)"/>
<path fill-rule="evenodd" clip-rule="evenodd" d="M7.12452 31.1634C5.94823 32.0789 5.73668 33.7877 6.65442 34.9614C7.57201 36.1349 9.28489 36.346 10.4614 35.4305L20.1451 27.8943C20.1478 27.8917 20.1506 27.8894 20.1534 27.8869C20.3588 27.7056 20.573 27.5396 20.7947 27.3887C22.3428 26.3357 24.2545 26.0266 26.0176 26.4728C26.2448 26.5303 26.4694 26.6003 26.6904 26.6828L25.6235 25.6464L23.3453 23.4338C21.8107 21.9432 19.3318 21.6634 17.6238 22.9925C14.1238 25.716 10.6243 28.4397 7.12445 31.1634H7.12452Z" fill="url(#paint5_linear_36_5)"/>
<path fill-rule="evenodd" clip-rule="evenodd" d="M32.3921 10.2581C33.2446 9.18694 33.1585 7.61558 32.1508 6.64636C31.0766 5.61318 29.3467 5.64046 28.3059 6.70692L27.8993 7.12339L26.3446 8.71642L26.3445 8.71657L23.2402 11.8976C23.1758 11.9634 23.1156 12.032 23.0593 12.1025C22.2067 13.1737 22.2929 14.7451 23.3006 15.7143C24.3748 16.7475 26.1047 16.7202 27.1455 15.6538L27.552 15.2372L29.1068 13.6442L29.1069 13.6441L32.2112 10.463C32.2755 10.3972 32.3357 10.3287 32.3921 10.2581Z" fill="url(#paint6_linear_36_5)"/>
<path fill-rule="evenodd" clip-rule="evenodd" d="M30.836 28.2354C31.7537 29.4088 33.4666 29.6199 34.6432 28.7044C35.8195 27.789 36.0311 26.0801 35.1133 24.9065L27.559 15.2461C27.5565 15.2434 27.5541 15.2406 27.5516 15.2377C27.3699 15.033 27.2035 14.8192 27.0522 14.598C25.9966 13.0536 25.6868 11.1466 26.1341 9.38767C26.1917 9.16103 26.2619 8.93697 26.3446 8.71646L25.3057 9.78085L23.0878 12.0535C21.5936 13.5844 21.3131 16.0574 22.6454 17.7614C25.3755 21.2528 28.1057 24.744 30.836 28.2355V28.2354Z" fill="url(#paint7_linear_36_5)"/>
<path d="M54.4342 27.25C53.1842 27.25 52.1175 27.1083 51.2342 26.825C50.3675 26.525 49.6425 26.1417 49.0592 25.675C48.4925 25.2083 48.0342 24.7167 47.6842 24.2C47.3509 23.6833 47.1009 23.1917 46.9342 22.725C46.7842 22.2583 46.6842 21.8833 46.6342 21.6C46.5842 21.3 46.5592 21.15 46.5592 21.15H50.9342C50.9342 21.15 50.9675 21.2833 51.0342 21.55C51.1009 21.8 51.2509 22.0917 51.4842 22.425C51.7342 22.7583 52.1009 23.0583 52.5842 23.325C53.0842 23.575 53.7509 23.7 54.5842 23.7C55.6175 23.7 56.3592 23.4917 56.8092 23.075C57.2759 22.6583 57.5092 22.1833 57.5092 21.65C57.5092 21.1667 57.3342 20.7833 56.9842 20.5C56.6509 20.2167 56.1009 20 55.3342 19.85L52.8592 19.425C51.8259 19.2417 50.8509 18.95 49.9342 18.55C49.0342 18.15 48.3009 17.5833 47.7342 16.85C47.1842 16.1167 46.9092 15.1667 46.9092 14C46.9092 12.85 47.1925 11.85 47.7592 11C48.3425 10.1333 49.1675 9.45833 50.2342 8.975C51.3009 8.49167 52.5592 8.25 54.0092 8.25C55.1425 8.25 56.1092 8.39167 56.9092 8.675C57.7092 8.94167 58.3759 9.29167 58.9092 9.725C59.4425 10.1417 59.8675 10.5917 60.1842 11.075C60.5175 11.5417 60.7592 11.9917 60.9092 12.425C61.0759 12.8583 61.1842 13.2083 61.2342 13.475C61.2842 13.7417 61.3092 13.875 61.3092 13.875H57.0342C57.0342 13.875 57.0009 13.775 56.9342 13.575C56.8842 13.3583 56.7509 13.1167 56.5342 12.85C56.3342 12.5667 56.0259 12.3167 55.6092 12.1C55.1925 11.8833 54.6259 11.775 53.9092 11.775C52.9092 11.775 52.2009 11.9917 51.7842 12.425C51.3675 12.8417 51.1592 13.2833 51.1592 13.75C51.1592 14.2667 51.3842 14.6583 51.8342 14.925C52.3009 15.1917 52.8842 15.3917 53.5842 15.525L56.2092 15.975C57.2259 16.1583 58.1592 16.4667 59.0092 16.9C59.8592 17.3333 60.5425 17.9167 61.0592 18.65C61.5759 19.3833 61.8342 20.2917 61.8342 21.375C61.8342 22.4917 61.5425 23.5 60.9592 24.4C60.3925 25.2833 59.5592 25.9833 58.4592 26.5C57.3592 27 56.0175 27.25 54.4342 27.25ZM69.5532 13.5C70.4198 13.5 71.1198 13.6417 71.6531 13.925C72.2031 14.2083 72.6115 14.5 72.8781 14.8C73.1615 15.0833 73.3198 15.2583 73.3531 15.325H73.5531V13.75H77.8282V27H73.5531V25.425H73.3531C73.3198 25.4917 73.1615 25.675 72.8781 25.975C72.6115 26.275 72.2031 26.5667 71.6531 26.85C71.1198 27.1167 70.4198 27.25 69.5532 27.25C68.5865 27.25 67.7448 27.0583 67.0281 26.675C66.3115 26.275 65.7115 25.75 65.2281 25.1C64.7448 24.4333 64.3865 23.6917 64.1531 22.875C63.9198 22.0583 63.8031 21.225 63.8031 20.375C63.8031 19.525 63.9198 18.6917 64.1531 17.875C64.3865 17.0583 64.7448 16.325 65.2281 15.675C65.7115 15.0083 66.3115 14.4833 67.0281 14.1C67.7448 13.7 68.5865 13.5 69.5532 13.5ZM70.9031 16.925C70.2865 16.925 69.7698 17.1 69.3531 17.45C68.9365 17.7833 68.6281 18.2167 68.4281 18.75C68.2281 19.2667 68.1281 19.8083 68.1281 20.375C68.1281 20.9417 68.2281 21.4917 68.4281 22.025C68.6281 22.5417 68.9365 22.975 69.3531 23.325C69.7698 23.6583 70.2865 23.825 70.9031 23.825C71.5198 23.825 72.0281 23.6583 72.4281 23.325C72.8448 22.975 73.1531 22.5417 73.3531 22.025C73.5698 21.4917 73.6781 20.9417 73.6781 20.375C73.6781 19.8083 73.5698 19.2667 73.3531 18.75C73.1531 18.2167 72.8448 17.7833 72.4281 17.45C72.0281 17.1 71.5198 16.925 70.9031 16.925ZM80.878 27V8H85.153V27H80.878ZM94.6783 27.25C93.495 27.25 92.47 27.0583 91.6033 26.675C90.7367 26.275 90.0117 25.75 89.4283 25.1C88.8617 24.4333 88.4367 23.6917 88.1533 22.875C87.8867 22.0583 87.7533 21.2167 87.7533 20.35C87.7533 19.5167 87.8867 18.6917 88.1533 17.875C88.42 17.0583 88.8283 16.325 89.3783 15.675C89.9283 15.0083 90.6283 14.4833 91.4783 14.1C92.345 13.7 93.37 13.5 94.5533 13.5C95.82 13.5 96.9283 13.775 97.8783 14.325C98.845 14.8583 99.595 15.65 100.128 16.7C100.678 17.7333 100.953 18.9917 100.953 20.475V21.475H92.0533C92.1033 22.1583 92.345 22.7583 92.7783 23.275C93.2283 23.775 93.8617 24.025 94.6783 24.025C95.295 24.025 95.7617 23.9167 96.0783 23.7C96.4117 23.4667 96.6367 23.2333 96.7533 23C96.87 22.7667 96.9283 22.65 96.9283 22.65H100.853C100.853 22.65 100.812 22.8083 100.728 23.125C100.645 23.425 100.487 23.8083 100.253 24.275C100.02 24.725 99.6783 25.1833 99.2283 25.65C98.7783 26.1 98.1783 26.4833 97.4283 26.8C96.695 27.1 95.7783 27.25 94.6783 27.25ZM92.0283 19H96.8533C96.82 18.2167 96.5783 17.625 96.1283 17.225C95.695 16.825 95.145 16.625 94.4783 16.625C93.8283 16.625 93.27 16.825 92.8033 17.225C92.3533 17.625 92.095 18.2167 92.0283 19ZM109.329 27.25C108.196 27.25 107.254 27.1 106.504 26.8C105.771 26.5 105.187 26.125 104.754 25.675C104.321 25.225 103.996 24.775 103.779 24.325C103.562 23.875 103.421 23.5 103.354 23.2C103.287 22.9 103.254 22.75 103.254 22.75H107.154C107.154 22.75 107.179 22.825 107.229 22.975C107.296 23.1083 107.404 23.275 107.554 23.475C107.721 23.6583 107.962 23.825 108.279 23.975C108.596 24.1083 109.021 24.175 109.554 24.175C110.204 24.175 110.629 24.05 110.829 23.8C111.029 23.55 111.129 23.325 111.129 23.125C111.129 22.625 110.704 22.2917 109.854 22.125L108.029 21.8C107.229 21.6667 106.479 21.45 105.779 21.15C105.079 20.85 104.512 20.4333 104.079 19.9C103.646 19.3667 103.429 18.675 103.429 17.825C103.429 17.0083 103.637 16.275 104.054 15.625C104.487 14.975 105.104 14.4583 105.904 14.075C106.721 13.6917 107.704 13.5 108.854 13.5C109.904 13.5 110.779 13.6417 111.479 13.925C112.179 14.2083 112.737 14.5583 113.154 14.975C113.571 15.3917 113.879 15.8083 114.079 16.225C114.279 16.6417 114.412 16.9917 114.479 17.275C114.546 17.5583 114.579 17.7 114.579 17.7H110.804C110.804 17.7 110.754 17.6 110.654 17.4C110.554 17.2 110.354 17 110.054 16.8C109.771 16.6 109.337 16.5 108.754 16.5C108.171 16.5 107.771 16.6167 107.554 16.85C107.337 17.0667 107.229 17.2917 107.229 17.525C107.229 17.825 107.371 18.05 107.654 18.2C107.937 18.3333 108.296 18.4417 108.729 18.525L110.404 18.85C111.721 19.1 112.796 19.5417 113.629 20.175C114.479 20.7917 114.904 21.7 114.904 22.9C114.904 24.1333 114.421 25.1667 113.454 26C112.504 26.8333 111.129 27.25 109.329 27.25ZM117.151 27V13.75H121.426V15.525H121.576C121.876 14.9917 122.31 14.525 122.876 14.125C123.46 13.7083 124.218 13.5 125.151 13.5C126.151 13.5 126.943 13.7333 127.526 14.2C128.126 14.65 128.551 15.2083 128.801 15.875H128.876C129.076 15.525 129.351 15.1667 129.701 14.8C130.068 14.4333 130.518 14.125 131.051 13.875C131.585 13.625 132.218 13.5 132.951 13.5C133.868 13.5 134.61 13.7083 135.176 14.125C135.76 14.525 136.185 15.0417 136.451 15.675C136.735 16.3083 136.876 16.9667 136.876 17.65V27H132.601V18.9C132.601 18.35 132.46 17.8917 132.176 17.525C131.893 17.1583 131.468 16.975 130.901 16.975C130.285 16.975 129.835 17.1833 129.551 17.6C129.285 18.0167 129.151 18.4917 129.151 19.025V27H124.876V18.9C124.876 18.3667 124.735 17.9167 124.451 17.55C124.185 17.1667 123.76 16.975 123.176 16.975C122.56 16.975 122.11 17.1917 121.826 17.625C121.56 18.0417 121.426 18.5083 121.426 19.025V27H117.151ZM144.993 13.5C145.859 13.5 146.559 13.6417 147.093 13.925C147.643 14.2083 148.051 14.5 148.318 14.8C148.601 15.0833 148.759 15.2583 148.793 15.325H148.993V13.75H153.268V27H148.993V25.425H148.793C148.759 25.4917 148.601 25.675 148.318 25.975C148.051 26.275 147.643 26.5667 147.093 26.85C146.559 27.1167 145.859 27.25 144.993 27.25C144.026 27.25 143.184 27.0583 142.468 26.675C141.751 26.275 141.151 25.75 140.668 25.1C140.184 24.4333 139.826 23.6917 139.593 22.875C139.359 22.0583 139.243 21.225 139.243 20.375C139.243 19.525 139.359 18.6917 139.593 17.875C139.826 17.0583 140.184 16.325 140.668 15.675C141.151 15.0083 141.751 14.4833 142.468 14.1C143.184 13.7 144.026 13.5 144.993 13.5ZM146.343 16.925C145.726 16.925 145.209 17.1 144.793 17.45C144.376 17.7833 144.068 18.2167 143.868 18.75C143.668 19.2667 143.568 19.8083 143.568 20.375C143.568 20.9417 143.668 21.4917 143.868 22.025C144.068 22.5417 144.376 22.975 144.793 23.325C145.209 23.6583 145.726 23.825 146.343 23.825C146.959 23.825 147.468 23.6583 147.868 23.325C148.284 22.975 148.593 22.5417 148.793 22.025C149.009 21.4917 149.118 20.9417 149.118 20.375C149.118 19.8083 149.009 19.2667 148.793 18.75C148.593 18.2167 148.284 17.7833 147.868 17.45C147.468 17.1 146.959 16.925 146.343 16.925ZM156.067 27V13.75H160.342V15.625H160.467C160.634 15.3583 160.859 15.0583 161.142 14.725C161.442 14.3917 161.834 14.1083 162.317 13.875C162.817 13.625 163.434 13.5 164.167 13.5C165.234 13.5 166.084 13.7417 166.717 14.225C167.367 14.7083 167.834 15.325 168.117 16.075C168.401 16.8083 168.542 17.5667 168.542 18.35V27H164.267V19.15C164.267 18.5833 164.117 18.0833 163.817 17.65C163.517 17.2 163.026 16.975 162.342 16.975C161.592 16.975 161.067 17.225 160.767 17.725C160.484 18.2083 160.342 18.7417 160.342 19.325V27H156.067Z" fill="#151516"/>
<defs>
<linearGradient id="paint0_linear_36_5" x1="10.7085" y1="5.87915" x2="11.4365" y2="9.72345" gradientUnits="userSpaceOnUse">
<stop stop-color="#E62129"/>
<stop offset="0.74902" stop-color="#9A0000"/>
<stop offset="1" stop-color="#9A0000"/>
</linearGradient>
<linearGradient id="paint1_linear_36_5" x1="26.3326" y1="3.30473" x2="14.8845" y2="12.169" gradientUnits="userSpaceOnUse">
<stop stop-color="#9A0000"/>
<stop offset="1" stop-color="#E62129"/>
</linearGradient>
<linearGradient id="paint2_linear_36_5" x1="5.89345" y1="25.573" x2="9.74559" y2="24.8399" gradientUnits="userSpaceOnUse">
<stop stop-color="#FFCC33"/>
<stop offset="0.74902" stop-color="#F7981E"/>
<stop offset="1" stop-color="#F7981E"/>
</linearGradient>
<linearGradient id="paint3_linear_36_5" x1="3.31262" y1="9.98624" x2="12.1449" y2="21.448" gradientUnits="userSpaceOnUse">
<stop stop-color="#F7981E"/>
<stop offset="1" stop-color="#FFCC33"/>
</linearGradient>
<linearGradient id="paint4_linear_36_5" x1="24.9757" y1="30.1207" x2="24.2477" y2="26.2767" gradientUnits="userSpaceOnUse">
<stop stop-color="#29A6FF"/>
<stop offset="0.74902" stop-color="#0C3569"/>
<stop offset="1" stop-color="#0C3569"/>
</linearGradient>
<linearGradient id="paint5_linear_36_5" x1="9.3513" y1="32.6953" x2="20.7995" y2="23.831" gradientUnits="userSpaceOnUse">
<stop stop-color="#0C3569"/>
<stop offset="1" stop-color="#29A6FF"/>
</linearGradient>
<linearGradient id="paint6_linear_36_5" x1="29.7909" y1="10.4272" x2="25.9388" y2="11.1602" gradientUnits="userSpaceOnUse">
<stop stop-color="#C32BDE"/>
<stop offset="0.74902" stop-color="#800B8D"/>
<stop offset="1" stop-color="#480A6E"/>
</linearGradient>
<linearGradient id="paint7_linear_36_5" x1="32.3716" y1="26.0138" x2="23.5394" y2="14.5519" gradientUnits="userSpaceOnUse">
<stop stop-color="#800B8D"/>
<stop offset="1" stop-color="#C32BDE"/>
</linearGradient>
</defs>
</svg>
